<svg width="475" height="92" viewBox="0 0 475 92" fill="none" xmlns="http://www.w3.org/2000/svg">
<path d="M64.38 68.38C64.86 68.38 65.34 68.48 65.82 68.68C66.3 68.84 66.76 69.14 67.2 69.58L75.24 78.04C71.72 82.64 67.3 86.12 61.98 88.48C56.7 90.8 50.44 91.96 43.2 91.96C36.56 91.96 30.6 90.84 25.32 88.6C20.08 86.32 15.62 83.2 11.94 79.24C8.3 75.24 5.5 70.52 3.54 65.08C1.58 59.6 0.6 53.66 0.6 47.26C0.6 40.74 1.66 34.76 3.78 29.32C5.9 23.84 8.88 19.12 12.72 15.16C16.56 11.2 21.16 8.12 26.52 5.91999C31.88 3.72 37.78 2.62 44.22 2.62C47.5 2.62 50.58 2.92 53.46 3.52C56.38 4.07999 59.1 4.87999 61.62 5.91999C64.14 6.92 66.46 8.14 68.58 9.57999C70.7 11.02 72.58 12.58 74.22 14.26L67.38 23.44C66.94 24 66.42 24.52 65.82 25C65.22 25.44 64.38 25.66 63.3 25.66C62.58 25.66 61.9 25.5 61.26 25.18C60.62 24.86 59.94 24.48 59.22 24.04C58.5 23.56 57.7 23.06 56.82 22.54C55.98 21.98 54.96 21.48 53.76 21.04C52.6 20.56 51.22 20.16 49.62 19.84C48.06 19.52 46.22 19.36 44.1 19.36C40.74 19.36 37.66 19.98 34.86 21.22C32.1 22.46 29.7 24.28 27.66 26.68C25.66 29.04 24.1 31.96 22.98 35.44C21.9 38.88 21.36 42.82 21.36 47.26C21.36 51.74 21.96 55.72 23.16 59.2C24.4 62.68 26.06 65.62 28.14 68.02C30.26 70.38 32.72 72.18 35.52 73.42C38.32 74.66 41.32 75.28 44.52 75.28C46.36 75.28 48.04 75.2 49.56 75.04C51.08 74.84 52.5 74.54 53.82 74.14C55.14 73.7 56.38 73.14 57.54 72.46C58.7 71.74 59.88 70.84 61.08 69.76C61.56 69.36 62.08 69.04 62.64 68.8C63.2 68.52 63.78 68.38 64.38 68.38ZM209.892 65.68C206.172 65.84 203.112 66.16 200.712 66.64C198.312 67.12 196.412 67.72 195.012 68.44C193.612 69.16 192.632 69.98 192.072 70.9C191.552 71.82 191.292 72.82 191.292 73.9C191.292 76.02 191.872 77.52 193.032 78.4C194.192 79.24 195.892 79.66 198.132 79.66C200.532 79.66 202.632 79.24 204.432 78.4C206.232 77.56 208.052 76.2 209.892 74.32V65.68ZM176.412 37.42C180.172 34.1 184.332 31.64 188.892 30.04C193.492 28.4 198.412 27.58 203.652 27.58C207.412 27.58 210.792 28.2 213.792 29.44C216.832 30.64 219.392 32.34 221.472 34.54C223.592 36.7 225.212 39.28 226.332 42.28C227.452 45.28 228.012 48.56 228.012 52.12V91H219.492C217.732 91 216.392 90.76 215.472 90.28C214.592 89.8 213.852 88.8 213.252 87.28L211.932 83.86C210.372 85.18 208.872 86.34 207.432 87.34C205.992 88.34 204.492 89.2 202.932 89.92C201.412 90.6 199.772 91.1 198.012 91.42C196.292 91.78 194.372 91.96 192.252 91.96C189.412 91.96 186.832 91.6 184.512 90.88C182.192 90.12 180.212 89.02 178.572 87.58C176.972 86.14 175.732 84.36 174.852 82.24C173.972 80.08 173.532 77.6 173.532 74.8C173.532 72.56 174.092 70.3 175.212 68.02C176.332 65.7 178.272 63.6 181.032 61.72C183.792 59.8 187.512 58.2 192.192 56.92C196.872 55.64 202.772 54.92 209.892 54.76V52.12C209.892 48.48 209.132 45.86 207.612 44.26C206.132 42.62 204.012 41.8 201.252 41.8C199.052 41.8 197.252 42.04 195.852 42.52C194.452 43 193.192 43.54 192.072 44.14C190.992 44.74 189.932 45.28 188.892 45.76C187.852 46.24 186.612 46.48 185.172 46.48C183.892 46.48 182.812 46.16 181.932 45.52C181.052 44.88 180.332 44.12 179.772 43.24L176.412 37.42Z" fill="#007BFF"/>
<path d="M100.533 1.17999V91H81.9328V1.17999H100.533ZM371.304 28.78V91H352.704V28.78H371.304ZM373.224 11.74C373.224 13.22 372.924 14.62 372.324 15.94C371.724 17.22 370.904 18.36 369.864 19.36C368.824 20.32 367.604 21.1 366.204 21.7C364.844 22.26 363.384 22.54 361.824 22.54C360.304 22.54 358.884 22.26 357.564 21.7C356.244 21.1 355.064 20.32 354.024 19.36C353.024 18.36 352.224 17.22 351.624 15.94C351.064 14.62 350.784 13.22 350.784 11.74C350.784 10.22 351.064 8.79999 351.624 7.48C352.224 6.16 353.024 5 354.024 4C355.064 3 356.244 2.22 357.564 1.66C358.884 1.1 360.304 0.819999 361.824 0.819999C363.384 0.819999 364.844 1.1 366.204 1.66C367.604 2.22 368.824 3 369.864 4C370.904 5 371.724 6.16 372.324 7.48C372.924 8.79999 373.224 10.22 373.224 11.74Z" fill="#DC3545"/>
<path d="M151.805 52.42C151.805 50.94 151.605 49.5 151.205 48.1C150.845 46.7 150.225 45.46 149.345 44.38C148.505 43.26 147.385 42.36 145.985 41.68C144.585 41 142.885 40.66 140.885 40.66C137.365 40.66 134.605 41.68 132.605 43.72C130.605 45.72 129.285 48.62 128.645 52.42H151.805ZM128.405 63.22C129.005 68.42 130.585 72.2 133.145 74.56C135.705 76.88 139.005 78.04 143.045 78.04C145.205 78.04 147.065 77.78 148.625 77.26C150.185 76.74 151.565 76.16 152.765 75.52C154.005 74.88 155.125 74.3 156.125 73.78C157.165 73.26 158.245 73 159.365 73C160.845 73 161.965 73.54 162.725 74.62L168.125 81.28C166.205 83.48 164.125 85.28 161.885 86.68C159.685 88.04 157.405 89.12 155.045 89.92C152.725 90.68 150.385 91.2 148.025 91.48C145.705 91.8 143.485 91.96 141.365 91.96C137.005 91.96 132.905 91.26 129.065 89.86C125.265 88.42 121.925 86.3 119.045 83.5C116.205 80.7 113.945 77.22 112.265 73.06C110.625 68.9 109.805 64.06 109.805 58.54C109.805 54.38 110.505 50.44 111.905 46.72C113.345 43 115.385 39.74 118.025 36.94C120.705 34.14 123.925 31.92 127.685 30.28C131.485 28.64 135.765 27.82 140.525 27.82C144.645 27.82 148.405 28.46 151.805 29.74C155.245 31.02 158.185 32.88 160.625 35.32C163.105 37.76 165.025 40.76 166.385 44.32C167.785 47.84 168.485 51.84 168.485 56.32C168.485 57.72 168.425 58.86 168.305 59.74C168.185 60.62 167.965 61.32 167.645 61.84C167.325 62.36 166.885 62.72 166.325 62.92C165.805 63.12 165.125 63.22 164.285 63.22H128.405Z" fill="#FFC107"/>
<path d="M257.062 35.5C258.262 34.38 259.502 33.34 260.782 32.38C262.062 31.42 263.422 30.62 264.862 29.98C266.342 29.3 267.922 28.78 269.602 28.42C271.322 28.02 273.182 27.82 275.182 27.82C278.582 27.82 281.582 28.42 284.182 29.62C286.822 30.78 289.042 32.42 290.842 34.54C292.642 36.62 294.002 39.12 294.922 42.04C295.842 44.92 296.302 48.06 296.302 51.46V91H277.702V51.46C277.702 48.42 277.002 46.06 275.602 44.38C274.202 42.66 272.142 41.8 269.422 41.8C267.382 41.8 265.462 42.24 263.662 43.12C261.902 43.96 260.182 45.12 258.502 46.6V91H239.902V28.78H251.422C253.742 28.78 255.262 29.82 255.982 31.9L257.062 35.5ZM469.871 42.4C469.391 43.16 468.871 43.7 468.311 44.02C467.791 44.34 467.111 44.5 466.271 44.5C465.391 44.5 464.511 44.32 463.631 43.96C462.751 43.56 461.791 43.14 460.751 42.7C459.751 42.26 458.611 41.86 457.331 41.5C456.051 41.1 454.591 40.9 452.951 40.9C450.591 40.9 448.771 41.36 447.491 42.28C446.251 43.16 445.631 44.4 445.631 46C445.631 47.16 446.031 48.12 446.831 48.88C447.671 49.64 448.771 50.32 450.131 50.92C451.491 51.48 453.031 52.02 454.751 52.54C456.471 53.06 458.231 53.64 460.031 54.28C461.831 54.92 463.591 55.68 465.311 56.56C467.031 57.4 468.571 58.46 469.931 59.74C471.291 60.98 472.371 62.5 473.171 64.3C474.011 66.1 474.431 68.26 474.431 70.78C474.431 73.86 473.871 76.7 472.751 79.3C471.631 81.9 469.951 84.14 467.711 86.02C465.511 87.9 462.771 89.36 459.491 90.4C456.251 91.44 452.511 91.96 448.271 91.96C446.151 91.96 444.031 91.76 441.911 91.36C439.791 90.96 437.731 90.42 435.731 89.74C433.771 89.06 431.951 88.26 430.271 87.34C428.591 86.38 427.151 85.36 425.951 84.28L430.271 77.44C430.751 76.64 431.351 76.02 432.071 75.58C432.831 75.1 433.791 74.86 434.951 74.86C436.031 74.86 436.991 75.1 437.831 75.58C438.711 76.06 439.651 76.58 440.651 77.14C441.651 77.7 442.811 78.22 444.131 78.7C445.491 79.18 447.191 79.42 449.231 79.42C450.671 79.42 451.891 79.28 452.891 79C453.891 78.68 454.691 78.26 455.291 77.74C455.891 77.22 456.331 76.64 456.611 76C456.891 75.36 457.031 74.7 457.031 74.02C457.031 72.78 456.611 71.76 455.771 70.96C454.931 70.16 453.831 69.48 452.471 68.92C451.111 68.32 449.551 67.78 447.791 67.3C446.071 66.78 444.311 66.2 442.511 65.56C440.711 64.92 438.931 64.16 437.171 63.28C435.451 62.36 433.911 61.22 432.551 59.86C431.191 58.46 430.091 56.76 429.251 54.76C428.411 52.76 427.991 50.34 427.991 47.5C427.991 44.86 428.491 42.36 429.491 40C430.531 37.6 432.071 35.5 434.111 33.7C436.151 31.9 438.711 30.48 441.791 29.44C444.871 28.36 448.471 27.82 452.591 27.82C454.831 27.82 456.991 28.02 459.071 28.42C461.191 28.82 463.171 29.38 465.011 30.1C466.851 30.82 468.531 31.68 470.051 32.68C471.571 33.64 472.911 34.7 474.071 35.86L469.871 42.4Z" fill="#28A745"/>
<path d="M312.959 91V41.56L308.879 40.72C307.479 40.4 306.339 39.9 305.459 39.22C304.619 38.54 304.199 37.54 304.199 36.22V28.9H312.959V25.36C312.959 21.8 313.519 18.58 314.639 15.7C315.799 12.82 317.439 10.36 319.559 8.32C321.719 6.28 324.339 4.7 327.419 3.58C330.499 2.46 333.999 1.9 337.919 1.9C339.439 1.9 340.839 2 342.119 2.2C343.399 2.36 344.739 2.64 346.139 3.04L345.779 12.1C345.739 12.74 345.579 13.28 345.299 13.72C345.019 14.12 344.639 14.46 344.159 14.74C343.719 14.98 343.239 15.16 342.719 15.28C342.199 15.4 341.679 15.46 341.159 15.46C339.519 15.46 338.059 15.62 336.779 15.94C335.499 16.26 334.419 16.84 333.539 17.68C332.699 18.48 332.059 19.56 331.619 20.92C331.179 22.24 330.959 23.92 330.959 25.96V28.9H345.539V41.62H331.559V91H312.959Z" fill="#17A2B8"/>
<path d="M406.537 91.96C403.577 91.96 400.957 91.54 398.677 90.7C396.437 89.82 394.537 88.6 392.977 87.04C391.457 85.44 390.297 83.52 389.497 81.28C388.697 79.04 388.297 76.54 388.297 73.78V41.62H383.017C382.057 41.62 381.237 41.32 380.557 40.72C379.877 40.08 379.537 39.16 379.537 37.96V30.7L389.437 28.78L393.097 13.6C393.577 11.68 394.937 10.72 397.177 10.72H406.897V28.9H422.317V41.62H406.897V72.52C406.897 73.96 407.237 75.16 407.917 76.12C408.637 77.04 409.657 77.5 410.977 77.5C411.657 77.5 412.217 77.44 412.657 77.32C413.137 77.16 413.537 77 413.857 76.84C414.217 76.64 414.537 76.48 414.817 76.36C415.137 76.2 415.497 76.12 415.897 76.12C416.457 76.12 416.897 76.26 417.217 76.54C417.577 76.78 417.937 77.18 418.297 77.74L423.937 86.56C421.537 88.36 418.837 89.72 415.837 90.64C412.837 91.52 409.737 91.96 406.537 91.96Z" fill="#343A40"/>
</svg>
